<?xml version="1.0" encoding="iso-8859-1"?>
<!-- Generator: Adobe Illustrator 19.0.0, SVG Export Plug-In . SVG Version: 6.00 Build 0)  -->
<svg version="1.1" id="Capa_1" xmlns="http://www.w3.org/2000/svg" xmlns:xlink="http://www.w3.org/1999/xlink" x="0px" y="0px"
	 viewBox="0 0 512 512" style="enable-background:new 0 0 512 512;" xml:space="preserve">
<path style="fill:#FFD400;" d="M256,91c-90.901,0-165,74.099-165,165s74.099,165,165,165s165-74.099,165-165S346.901,91,256,91z"/>
<path style="fill:#FDBF00;" d="M421,256c0,90.901-74.099,165-165,165V91C346.901,91,421,165.099,421,256z"/>
<g>
	<path style="fill:#FFD400;" d="M271,466v31c0,8.401-6.599,15-15,15s-15-6.599-15-15v-31c0-8.401,6.599-15,15-15
		S271,457.599,271,466z"/>
	<path style="fill:#FFD400;" d="M271,15v31c0,8.401-6.599,15-15,15s-15-6.599-15-15V15c0-8.401,6.599-15,15-15S271,6.599,271,15z"/>
</g>
<path style="fill:#FDBF00;" d="M497,271h-31c-8.291,0-15-6.709-15-15s6.709-15,15-15h31c8.291,0,15,6.709,15,15
	C512,264.291,505.291,271,497,271z"/>
<path style="fill:#FFD400;" d="M46,271H15c-8.291,0-15-6.709-15-15s6.709-15,15-15h31c8.291,0,15,6.709,15,15
	C61,264.291,54.291,271,46,271z"/>
<path style="fill:#FDBF00;" d="M424.838,158.515c-4.146-7.178-1.685-16.348,5.493-20.493l26.016-15.015
	c7.148-4.16,16.333-1.685,20.493,5.493c4.146,7.178,1.685,16.348-5.493,20.493l-26.016,15.015
	C438.233,168.108,429.03,165.751,424.838,158.515z"/>
<path style="fill:#FFD400;" d="M35.16,383.5c-4.146-7.178-1.685-16.348,5.493-20.493l26.016-15.015
	c7.134-4.146,16.318-1.67,20.493,5.493c4.146,7.178,1.685,16.348-5.493,20.493l-26.016,15.015
	C48.555,393.093,39.352,390.737,35.16,383.5z"/>
<path style="fill:#FDBF00;" d="M353.485,87.162c-7.178-4.146-9.639-13.315-5.493-20.493l15.015-26.016
	c4.146-7.178,13.315-9.639,20.493-5.493s9.639,13.315,5.493,20.493l-15.015,26.016C369.793,88.895,360.594,91.268,353.485,87.162z"
	/>
<g>
	<path style="fill:#FFD400;" d="M128.5,476.84c-7.178-4.146-9.639-13.315-5.493-20.493l15.015-26.016
		c4.131-7.192,13.301-9.668,20.493-5.493c7.178,4.146,9.639,13.315,5.493,20.493l-15.015,26.016
		C144.808,478.572,135.609,480.946,128.5,476.84z"/>
	<path style="fill:#FFD400;" d="M66.669,164.008l-26.016-15.015c-7.178-4.146-9.639-13.315-5.493-20.493
		c4.131-7.178,13.301-9.653,20.493-5.493l26.016,15.015c7.178,4.146,9.639,13.315,5.493,20.493
		C82.977,165.74,73.778,168.114,66.669,164.008z"/>
</g>
<path style="fill:#FDBF00;" d="M456.347,388.993l-26.016-15.015c-7.178-4.146-9.639-13.315-5.493-20.493
	c4.146-7.163,13.315-9.639,20.493-5.493l26.016,15.015c7.178,4.146,9.639,13.315,5.493,20.493
	C472.654,390.726,463.455,393.099,456.347,388.993z"/>
<path style="fill:#FFD400;" d="M138.021,81.669l-15.015-26.016c-4.146-7.178-1.685-16.348,5.493-20.493
	c7.134-4.146,16.318-1.685,20.493,5.493l15.015,26.016c4.146,7.178,1.685,16.348-5.493,20.493
	C151.416,91.262,142.213,88.906,138.021,81.669z"/>
<path style="fill:#FDBF00;" d="M363.007,471.347l-15.015-26.016c-4.146-7.178-1.685-16.348,5.493-20.493
	c7.148-4.175,16.333-1.699,20.493,5.493l15.015,26.016c4.146,7.178,1.685,16.348-5.493,20.493
	C376.402,480.94,367.199,478.583,363.007,471.347z"/>
<path style="fill:#68544F;" d="M322.599,242.5l-46.5-23.099l23.401-46.802c3.3-6.599,1.199-14.399-4.801-18.898
	c-5.999-4.2-14.099-3.602-19.199,1.8L256,175l-70.499,70.501c-3.6,3.3-5.101,8.099-4.2,12.9c0.601,4.799,3.6,9,8.101,11.1
	l46.5,23.099L212.5,339.401c-3.3,6.599-1.199,14.399,4.801,18.898c5.999,4.2,14.099,3.602,19.199-1.8L256,337l70.499-70.501
	c3.6-3.3,5.101-8.099,4.2-12.9C330.099,248.8,327.1,244.6,322.599,242.5z"/>
<path style="fill:#53433F;" d="M330.7,253.599c0.901,4.801-0.601,9.6-4.2,12.9L256,337V175l19.501-19.499
	c5.099-5.402,13.2-6,19.199-1.8c6,4.499,8.101,12.299,4.801,18.898L276.1,219.401l46.5,23.099
	C327.1,244.6,330.099,248.8,330.7,253.599z"/>
<g>
	<path style="fill:#FDBF00;" d="M256,61V0c8.401,0,15,6.599,15,15v31C271,54.401,264.401,61,256,61z"/>
	<path style="fill:#FDBF00;" d="M271,466v31c0,8.401-6.599,15-15,15v-61C264.401,451,271,457.599,271,466z"/>
</g>
<g>
</g>
<g>
</g>
<g>
</g>
<g>
</g>
<g>
</g>
<g>
</g>
<g>
</g>
<g>
</g>
<g>
</g>
<g>
</g>
<g>
</g>
<g>
</g>
<g>
</g>
<g>
</g>
<g>
</g>
</svg>
